<svg width="25" height="24" viewBox="0 0 25 24" fill="none" xmlns="http://www.w3.org/2000/svg">
<path d="M8.10001 13C9.15437 13 10.0182 13.8159 10.0945 14.8507L10.1 15V18C10.1 19.0544 9.28413 19.9182 8.24927 19.9945L8.10001 20H5.10001C4.04564 20 3.18184 19.1841 3.10549 18.1493L3.10001 18V15C3.10001 13.9456 3.91588 13.0818 4.95074 13.0055L5.10001 13H8.10001ZM8.10001 3C9.20458 3 10.1 3.89543 10.1 5V8C10.1 9.10457 9.20458 10 8.10001 10H5.10001C3.99544 10 3.10001 9.10457 3.10001 8V5C3.10001 3.89543 3.99544 3 5.10001 3H8.10001Z" fill="#334155"/>
<path d="M18.1 18C18.1 17.4477 17.6523 17 17.1 17H13.1L12.9834 17.0067C12.486 17.0645 12.1 17.4872 12.1 18C12.1 18.5523 12.5477 19 13.1 19H17.1L17.2166 18.9933C17.714 18.9355 18.1 18.5128 18.1 18Z" fill="#DA7D4A"/>
<path d="M22.1 14C22.1 13.4477 21.6523 13 21.1 13H13.1C12.5477 13 12.1 13.4477 12.1 14C12.1 14.5523 12.5477 15 13.1 15H21.1C21.6523 15 22.1 14.5523 22.1 14Z" fill="#DA7D4A"/>
<path d="M18.1 8C18.1 7.44772 17.6523 7 17.1 7H13.1L12.9834 7.00673C12.486 7.06449 12.1 7.48717 12.1 8C12.1 8.55228 12.5477 9 13.1 9H17.1L17.2166 8.99327C17.714 8.93551 18.1 8.51283 18.1 8Z" fill="#DA7D4A"/>
<path d="M22.1 4C22.1 3.44772 21.6523 3 21.1 3H13.1L12.9834 3.00673C12.486 3.06449 12.1 3.48717 12.1 4C12.1 4.55228 12.5477 5 13.1 5H21.1L21.2166 4.99327C21.714 4.93551 22.1 4.51283 22.1 4Z" fill="#DA7D4A"/>
</svg>
